<svg width="118" height="25" viewBox="0 0 118 25" fill="none" xmlns="http://www.w3.org/2000/svg">
<path d="M13.0625 18.8438V24H0.889648V18.8438H3.2334V5.85059H0.889648V0.694336H13.0625V5.85059H10.7334V18.8438H13.0625ZM34.7568 14.0391V19.7666H36.793V24H27.7256V14.0098C27.7256 13.5898 27.5889 13.2188 27.3154 12.8965C27.0518 12.5742 26.7295 12.4131 26.3486 12.4131C25.6357 12.4131 25.1865 12.7695 25.001 13.4824C24.8057 14.2148 24.708 15.2402 24.708 16.5586V19.7666H24.7373V24H15.582V19.7666H17.7061V12.8379H15.582V8.88281L24.708 8.00391V10.2012C25.3818 9.40039 26.1484 8.83398 27.0078 8.50195C27.8672 8.16992 28.8389 8.00391 29.9229 8.00391C33.1455 8.00391 34.7568 10.0156 34.7568 14.0391ZM56.3193 12.8379L51.7197 24H44.249L39.3564 12.8379H37.2031V8.31152H48.4531V12.8379H46.8271L49.376 20.2207L52.2031 12.8379H50.3428V8.31152H58.2969V12.8379H56.3193ZM68.7412 24.2637C66.9248 24.2637 65.3477 23.9268 64.0098 23.2529C62.6621 22.5889 61.627 21.6367 60.9043 20.3965C60.1914 19.1562 59.835 17.7061 59.835 16.0459C59.835 14.4053 60.1865 12.9795 60.8896 11.7686C61.583 10.5674 62.5645 9.63965 63.834 8.98535C65.1035 8.33105 66.5928 8.00391 68.3018 8.00391C69.874 8.00391 71.2607 8.31152 72.4619 8.92676C73.6631 9.55176 74.5908 10.4355 75.2451 11.5781C75.9092 12.7207 76.2412 14.0537 76.2412 15.5771C76.2412 16.1045 76.1631 16.6025 76.0068 17.0713H66.8809C66.8809 17.9893 67.2275 18.7266 67.9209 19.2832C68.6143 19.8301 69.4492 20.1035 70.4258 20.1035C71.168 20.1035 71.9834 19.9766 72.8721 19.7227C73.7607 19.459 74.6543 19.0537 75.5527 18.5068L75.8018 18.5947V22.5352C74.7959 23.1113 73.7607 23.5459 72.6963 23.8389C71.6416 24.1221 70.3232 24.2637 68.7412 24.2637ZM66.8809 14.0684V14.4932H70.6309V14.1855C70.6309 13.4922 70.4697 12.8965 70.1475 12.3984C69.835 11.8906 69.3662 11.6367 68.7412 11.6367C68.2236 11.6367 67.7842 11.8955 67.4229 12.4131C67.0615 12.9209 66.8809 13.4727 66.8809 14.0684ZM87.4326 24.2637C85.6162 24.2637 84.0391 23.9268 82.7012 23.2529C81.3535 22.5889 80.3184 21.6367 79.5957 20.3965C78.8828 19.1562 78.5264 17.7061 78.5264 16.0459C78.5264 14.4053 78.8779 12.9795 79.5811 11.7686C80.2744 10.5674 81.2559 9.63965 82.5254 8.98535C83.7949 8.33105 85.2842 8.00391 86.9932 8.00391C88.5654 8.00391 89.9521 8.31152 91.1533 8.92676C92.3545 9.55176 93.2822 10.4355 93.9365 11.5781C94.6006 12.7207 94.9326 14.0537 94.9326 15.5771C94.9326 16.1045 94.8545 16.6025 94.6982 17.0713H85.5723C85.5723 17.9893 85.9189 18.7266 86.6123 19.2832C87.3057 19.8301 88.1406 20.1035 89.1172 20.1035C89.8594 20.1035 90.6748 19.9766 91.5635 19.7227C92.4521 19.459 93.3457 19.0537 94.2441 18.5068L94.4932 18.5947V22.5352C93.4873 23.1113 92.4521 23.5459 91.3877 23.8389C90.333 24.1221 89.0146 24.2637 87.4326 24.2637ZM85.5723 14.0684V14.4932H89.3223V14.1855C89.3223 13.4922 89.1611 12.8965 88.8389 12.3984C88.5264 11.8906 88.0576 11.6367 87.4326 11.6367C86.915 11.6367 86.4756 11.8955 86.1143 12.4131C85.7529 12.9209 85.5723 13.4727 85.5723 14.0684ZM104.146 24.2637C102.73 24.2637 101.505 23.8877 100.47 23.1357C99.4443 22.3838 98.6631 21.3779 98.126 20.1182C97.5986 18.8486 97.335 17.4521 97.335 15.9287C97.335 14.5518 97.6084 13.248 98.1553 12.0176C98.7021 10.8066 99.4736 9.83496 100.47 9.10254C101.476 8.37012 102.662 8.00391 104.029 8.00391C105.025 8.00391 105.88 8.16504 106.593 8.4873C107.306 8.80957 107.97 9.28809 108.585 9.92285V6.08496H106.241V2.10059L115.631 1.13379V19.5908H117.491V24H108.468V22.1104C107.989 22.7549 107.379 23.2725 106.637 23.6631C105.895 24.0439 105.064 24.2441 104.146 24.2637ZM106.49 19.9863C106.949 19.9863 107.364 19.8789 107.735 19.6641C108.106 19.4395 108.39 19.1758 108.585 18.873V13.3213C108.36 13.0576 108.058 12.8232 107.677 12.6182C107.306 12.4033 106.91 12.2959 106.49 12.2959C105.729 12.2959 105.108 12.6084 104.63 13.2334C104.151 13.8486 103.912 14.7471 103.912 15.9287C103.912 17.1299 104.132 18.1064 104.571 18.8584C105.011 19.6104 105.65 19.9863 106.49 19.9863Z" fill="black"/>
</svg>
